<svg xmlns="http://www.w3.org/2000/svg" width="24" height="24" viewBox="0 0 24 24"><g transform="translate(-15 -15)"><rect width="24" height="24" transform="translate(15 15)" fill="#fff" opacity="0"/><path d="M-4977.651-4679.241a1,1,0,0,1-.108-1.411l4.585-5.349H-4987a1,1,0,0,1-1-1,1,1,0,0,1,1-1h13.825l-4.584-5.349a1,1,0,0,1,.108-1.411,1,1,0,0,1,1.411.109l5.992,6.991a1,1,0,0,1,.242.545s0,.006,0,.009,0,.008,0,.012a.112.112,0,0,1,0,.012.088.088,0,0,1,0,.011s0,.01,0,.015,0,.006,0,.009,0,.012,0,.018,0,0,0,.006v.024h0v.022c0,.005,0,.01,0,.015s0,0,0,.007,0,.013,0,.02h0a.994.994,0,0,1-.251.6l-5.987,6.985a1,1,0,0,1-.76.349A1,1,0,0,1-4977.651-4679.241Z" transform="translate(5006.001 4714)" fill="#fff"/></g></svg>