<svg xmlns="http://www.w3.org/2000/svg" width="80" height="80" viewBox="0 0 80 80"><rect width="80" height="80" fill="#e50025" opacity="0"/><path d="M20.5,17h0a8,8,0,1,1-8,8A8.02,8.02,0,0,1,20.5,17Zm0,14a6,6,0,1,0-6-6A6.007,6.007,0,0,0,20.5,31Z" fill="#0f7fed"/><path d="M5.5,64.326A1,1,0,0,1,4.809,62.6l17.794-17a1,1,0,0,1,1.313-.059l6.435,5.122L47.515,34.277a1,1,0,0,1,1.511.151L66.82,59.921a1,1,0,1,1-1.64,1.145L48.053,36.529,31.1,52.719a1,1,0,0,1-1.313.059l-6.435-5.122L6.191,64.05A1,1,0,0,1,5.5,64.326Z" fill="#0f7fed"/><path d="M-3449-4020a1,1,0,0,1-.25-.031,1,1,0,0,1-.25.031,1,1,0,0,1-1-1v-7h-8.5a1,1,0,0,1-1-1v-56a1,1,0,0,1,1-1h62a1,1,0,0,1,1,1v7h9a1,1,0,0,1,1,1v56a1,1,0,0,1-1,1Zm61-2v-54h-8v47a1,1,0,0,1-1,1h-51.5v6Zm-70-8h60v-54h-60Z" transform="translate(3463 4093)" fill="#fff"/></svg>