<svg xmlns="http://www.w3.org/2000/svg" width="80" height="80" viewBox="0 0 80 80"><rect width="80" height="80" fill="#e50025" opacity="0"/><path d="M-4774.811-4012a5.118,5.118,0,0,1-5.189-5.034v-7.664a1,1,0,0,1,1-1h53.623a1,1,0,0,1,1,1v7.664a3.118,3.118,0,0,0,3.189,3.034,3.118,3.118,0,0,0,3.188-3.034V-4084h-51.622v55.1a1,1,0,0,1-1,1,1,1,0,0,1-1-1V-4085a1,1,0,0,1,1-1H-4717a1,1,0,0,1,1,1v67.967a5.118,5.118,0,0,1-5.188,5.034Zm49.484-2a4.91,4.91,0,0,1-1.051-3.034v-6.665H-4778v6.665a3.119,3.119,0,0,0,3.19,3.034h49.484Zm-37.9-18.2a1,1,0,0,1-1-1,1,1,0,0,1,1-1h38.824a1,1,0,0,1,1,1,1,1,0,0,1-1,1Zm0-9.717a1,1,0,0,1-1-1,1,1,0,0,1,1-1h38.824a1,1,0,0,1,1,1,1,1,0,0,1-1,1Zm0-9.718a1,1,0,0,1-1-1,1,1,0,0,1,1-1h38.824a1,1,0,0,1,1,1,1,1,0,0,1-1,1Z" transform="translate(4788 4089)" fill="#fff"/><path d="M-4770.984-4072a2.346,2.346,0,0,1-2.173-1.388l-1.958-4.611H-4779a1,1,0,0,1-1-1,1,1,0,0,1,1-1h3.036l-1.957-4.61a1,1,0,0,1,.53-1.311,1,1,0,0,1,1.311.53l2.288,5.391h5.185l1.185-3.546a2.666,2.666,0,0,1,2.668-1.774,2.649,2.649,0,0,1,2.584,1.857l1.017,3.463h4.943l2.288-5.391a1,1,0,0,1,1.312-.53,1,1,0,0,1,.53,1.311l-1.957,4.61H-4751a1,1,0,0,1,1,1,1,1,0,0,1-1,1h-3.884l-1.957,4.611a2.35,2.35,0,0,1-2.175,1.388h-.055a2.36,2.36,0,0,1-2.189-1.312,1.042,1.042,0,0,1-.055-.145l-1.334-4.542h-4.516l-1.529,4.576a.947.947,0,0,1-.044.11,2.361,2.361,0,0,1-2.189,1.313Zm11.556-2.129a.493.493,0,0,0,.373.13c.145,0,.324-.058.372-.17l1.625-3.829h-3.507Zm-11.888-.04c.047.112.227.166.372.169a.484.484,0,0,0,.38-.138l1.29-3.862h-3.668Zm8.079-5.83-.852-2.9c-.114-.391-.6-.42-.7-.421a.726.726,0,0,0-.735.408l-.973,2.913Z" transform="translate(4809 4100)" fill="#0f7fed"/></svg>