<svg xmlns="http://www.w3.org/2000/svg" width="80" height="80" viewBox="0 0 80 80"><rect width="80" height="80" fill="#e50025" opacity="0"/><path d="M40,3a2.729,2.729,0,0,1,1.646.549c3.354,2.5,12.814,8.7,28.148,12.313a2.714,2.714,0,0,1,2.118,2.489,74.013,74.013,0,0,1-.2,10.14,74.34,74.34,0,0,1-3.19,16.25,56.293,56.293,0,0,1-9.178,17.686A49.207,49.207,0,0,1,41.173,76.742a2.794,2.794,0,0,1-2.348,0A49.206,49.206,0,0,1,20.66,62.427a56.292,56.292,0,0,1-9.178-17.686,74.333,74.333,0,0,1-3.19-16.25,73.955,73.955,0,0,1-.2-10.14,2.713,2.713,0,0,1,2.117-2.489C25.539,12.247,35,6.045,38.355,3.547A2.728,2.728,0,0,1,40,3Zm0,72a.783.783,0,0,0,.329-.071C70.66,60.806,70.3,25.412,69.914,18.461a.727.727,0,0,0-.582-.653,89.414,89.414,0,0,1-19.225-6.857,64.343,64.343,0,0,1-9.658-5.8.745.745,0,0,0-.9,0,64.345,64.345,0,0,1-9.66,5.8,89.415,89.415,0,0,1-19.226,6.857.727.727,0,0,0-.58.653C9.7,25.412,9.335,60.8,39.67,74.928A.784.784,0,0,0,40,75Z" fill="#fff"/><path d="M17-1A17.995,17.995,0,0,1,29.728,29.728,18,18,0,1,1,9.993.415,17.888,17.888,0,0,1,17-1Zm0,34A16,16,0,1,0,1,17,16.018,16.018,0,0,0,17,33Z" transform="translate(23 23)" fill="#0f7fed"/><path d="M35.375,45h0a1,1,0,0,1-.72-.307l-4.375-4.546a1,1,0,1,1,1.441-1.387l3.655,3.8,8.9-9.251a1,1,0,1,1,1.441,1.387l-9.625,10A1,1,0,0,1,35.375,45Z" transform="translate(2 1)" fill="#fff"/></svg>