<svg xmlns="http://www.w3.org/2000/svg" width="80" height="80" viewBox="0 0 80 80"><rect width="80" height="80" fill="#e50025" opacity="0"/><g transform="translate(0 1)"><path d="M35.157,76.476a1.633,1.633,0,0,1-1.274-.618l-4.794-5.88-7.238,2.844a1.63,1.63,0,0,1-1.722-.294,2.525,2.525,0,0,1-.546-2.584l.005-.019L24,55.189a1,1,0,1,1,1.916.574l-4.41,14.725a1.311,1.311,0,0,0-.05.339l7.115-2.8a1.649,1.649,0,0,1,1.912.494l4.729,5.8a1.327,1.327,0,0,0,.17-.381L39.5,59.185a1,1,0,1,1,1.927.537L37.312,74.48A2.624,2.624,0,0,1,35.5,76.44,1.677,1.677,0,0,1,35.157,76.476Z" transform="translate(-0.459 -0.476)" fill="#0f7fed"/><path d="M45.3,76.476a1.676,1.676,0,0,1-.344-.036,2.624,2.624,0,0,1-1.811-1.96l-4.11-14.758a1,1,0,0,1,1.927-.537l4.11,14.758a1.327,1.327,0,0,0,.17.381l4.729-5.8a1.649,1.649,0,0,1,1.913-.494L59,70.827a1.311,1.311,0,0,0-.05-.339L54.54,55.763a1,1,0,0,1,1.916-.574L60.87,69.925l.005.019a2.525,2.525,0,0,1-.546,2.584,1.63,1.63,0,0,1-1.724.294l-7.237-2.843-4.794,5.879A1.633,1.633,0,0,1,45.3,76.476Z" transform="translate(0 -0.476)" fill="#0f7fed"/><path d="M20-1A20.994,20.994,0,0,1,34.849,34.849,21,21,0,1,1,11.826.651,20.87,20.87,0,0,1,20-1Zm0,40A19,19,0,1,0,1,20,19.022,19.022,0,0,0,20,39Z" transform="translate(20 11)" fill="#fff"/><path d="M39.977,21.369a2.476,2.476,0,0,1,2.247,1.443l1.62,3.423a.509.509,0,0,0,.376.294l3.621.548a2.5,2.5,0,0,1,2,1.7,2.591,2.591,0,0,1-.6,2.65L46.613,34.1a.6.6,0,0,0-.157.521l.619,3.76a2.593,2.593,0,0,1-.574,2.1,2.482,2.482,0,0,1-1.889.888,2.427,2.427,0,0,1-1.178-.306l-3.241-1.776a.442.442,0,0,0-.432,0L36.52,41.063a2.427,2.427,0,0,1-1.178.306,2.482,2.482,0,0,1-1.89-.889,2.591,2.591,0,0,1-.573-2.1l.618-3.761a.6.6,0,0,0-.157-.52l-2.621-2.663a2.59,2.59,0,0,1-.606-2.649,2.505,2.505,0,0,1,2-1.706l3.622-.548a.509.509,0,0,0,.374-.294l1.621-3.423A2.476,2.476,0,0,1,39.977,21.369Zm4.635,18a.493.493,0,0,0,.365-.183A.579.579,0,0,0,45.1,38.7l-.619-3.761a2.611,2.611,0,0,1,.7-2.247l2.623-2.664a.6.6,0,0,0,.133-.615.511.511,0,0,0-.4-.36l-3.623-.548a2.507,2.507,0,0,1-1.883-1.415l-1.62-3.423a.473.473,0,0,0-.879,0L37.916,27.09a2.506,2.506,0,0,1-1.88,1.415l-3.625.549a.511.511,0,0,0-.4.36.6.6,0,0,0,.133.614l2.621,2.664a2.608,2.608,0,0,1,.7,2.248L34.851,38.7a.577.577,0,0,0,.125.485.494.494,0,0,0,.366.183.444.444,0,0,0,.217-.06L38.8,37.533a2.441,2.441,0,0,1,2.356,0l3.24,1.775A.444.444,0,0,0,44.612,39.369Z" transform="translate(0.023 -0.369)" fill="#0f7fed"/><path d="M40,60a8.9,8.9,0,0,1-4.5-1.683,10.593,10.593,0,0,0-2.493-1.228,8.679,8.679,0,0,0-2.192-.208c-.23,0-.468,0-.7.006s-.479.006-.719.006a7.644,7.644,0,0,1-3.907-.778,8.83,8.83,0,0,1-3-3.662A10.826,10.826,0,0,0,20.9,50.088,10.846,10.846,0,0,0,18.538,48.5a8.84,8.84,0,0,1-3.66-3.006,8.769,8.769,0,0,1-.767-4.625,11.034,11.034,0,0,0-.2-2.885A10.554,10.554,0,0,0,12.684,35.5,8.879,8.879,0,0,1,11,31a8.879,8.879,0,0,1,1.684-4.5,10.555,10.555,0,0,0,1.229-2.49,11.034,11.034,0,0,0,.2-2.885,8.769,8.769,0,0,1,.767-4.625A8.836,8.836,0,0,1,18.538,13.5,10.835,10.835,0,0,0,20.9,11.912a10.825,10.825,0,0,0,1.583-2.364,8.825,8.825,0,0,1,3-3.661A7.639,7.639,0,0,1,29.4,5.108c.241,0,.485,0,.721.006s.469.006.7.006a8.677,8.677,0,0,0,2.188-.207A10.588,10.588,0,0,0,35.5,3.684,8.9,8.9,0,0,1,40,2a8.9,8.9,0,0,1,4.5,1.684,10.588,10.588,0,0,0,2.493,1.229,8.677,8.677,0,0,0,2.188.207c.231,0,.469,0,.7-.006s.48-.006.721-.006a7.639,7.639,0,0,1,3.908.779,8.83,8.83,0,0,1,3,3.661A10.827,10.827,0,0,0,59.1,11.912,10.836,10.836,0,0,0,61.462,13.5a8.836,8.836,0,0,1,3.66,3.006,8.769,8.769,0,0,1,.767,4.624,11.034,11.034,0,0,0,.2,2.885A10.555,10.555,0,0,0,67.316,26.5,8.879,8.879,0,0,1,69,31a8.879,8.879,0,0,1-1.684,4.5,10.554,10.554,0,0,0-1.229,2.49,11.034,11.034,0,0,0-.2,2.885,8.769,8.769,0,0,1-.767,4.625,8.84,8.84,0,0,1-3.66,3.006A10.845,10.845,0,0,0,59.1,50.088a10.826,10.826,0,0,0-1.583,2.365,8.83,8.83,0,0,1-3,3.661,7.644,7.644,0,0,1-3.908.778c-.241,0-.484,0-.72-.006s-.468-.006-.7-.006a8.679,8.679,0,0,0-2.191.208A10.592,10.592,0,0,0,44.5,58.317,8.9,8.9,0,0,1,40,60Zm-9.186-5.119a10.6,10.6,0,0,1,2.709.276,12.165,12.165,0,0,1,3,1.444A7.375,7.375,0,0,0,40,58a7.375,7.375,0,0,0,3.475-1.4,12.164,12.164,0,0,1,3-1.444,10.6,10.6,0,0,1,2.708-.276c.242,0,.486,0,.722.006s.467.006.7.006a5.835,5.835,0,0,0,2.906-.509,7.327,7.327,0,0,0,2.258-2.9,12.412,12.412,0,0,1,1.915-2.806,12.431,12.431,0,0,1,2.8-1.918,7.339,7.339,0,0,0,2.9-2.261,7.279,7.279,0,0,0,.5-3.6,12.635,12.635,0,0,1,.266-3.428,12.124,12.124,0,0,1,1.445-3A7.356,7.356,0,0,0,67,31a7.356,7.356,0,0,0-1.4-3.468,12.124,12.124,0,0,1-1.445-3,12.635,12.635,0,0,1-.266-3.428,7.279,7.279,0,0,0-.5-3.6,7.334,7.334,0,0,0-2.9-2.261,12.422,12.422,0,0,1-2.805-1.919,12.413,12.413,0,0,1-1.915-2.805,7.327,7.327,0,0,0-2.258-2.9,5.831,5.831,0,0,0-2.906-.51c-.229,0-.467,0-.7.006s-.481.006-.724.006a10.6,10.6,0,0,1-2.7-.275,12.16,12.16,0,0,1-3-1.444A7.373,7.373,0,0,0,40,4a7.373,7.373,0,0,0-3.475,1.4,12.16,12.16,0,0,1-3,1.444,10.6,10.6,0,0,1-2.7.275c-.243,0-.487,0-.724-.006s-.468-.006-.7-.006a5.831,5.831,0,0,0-2.906.51,7.322,7.322,0,0,0-2.258,2.9,12.411,12.411,0,0,1-1.915,2.805,12.422,12.422,0,0,1-2.805,1.919,7.334,7.334,0,0,0-2.9,2.261,7.279,7.279,0,0,0-.5,3.6,12.635,12.635,0,0,1-.266,3.428,12.124,12.124,0,0,1-1.445,3A7.356,7.356,0,0,0,13,31a7.356,7.356,0,0,0,1.4,3.468,12.124,12.124,0,0,1,1.445,3,12.635,12.635,0,0,1,.266,3.428,7.279,7.279,0,0,0,.5,3.6,7.339,7.339,0,0,0,2.9,2.261,12.432,12.432,0,0,1,2.8,1.917,12.412,12.412,0,0,1,1.916,2.806,7.327,7.327,0,0,0,2.258,2.9,5.836,5.836,0,0,0,2.905.509c.229,0,.466,0,.7-.006S30.572,54.881,30.814,54.881Z" fill="#fff"/></g></svg>