<svg xmlns="http://www.w3.org/2000/svg" width="20" height="20" viewBox="0 0 20 20"><rect width="20" height="20" fill="#2b2c31" opacity="0"/><g transform="translate(2.333 2.333)"><path d="M-3649.04-414.626l-3.39-3.39a7.961,7.961,0,0,1-4.9,1.682,8.008,8.008,0,0,1-8-8,8.009,8.009,0,0,1,8-8,8.009,8.009,0,0,1,8,8,7.959,7.959,0,0,1-1.683,4.9l3.389,3.39a1,1,0,0,1,0,1.414,1,1,0,0,1-.707.293A1,1,0,0,1-3649.04-414.626Zm-14.293-9.707a6.007,6.007,0,0,0,6,6,6.007,6.007,0,0,0,6-6,6.007,6.007,0,0,0-6-6A6.007,6.007,0,0,0-3663.333-424.333Z" transform="translate(3664 431)" fill="#121213"/></g></svg>