<svg xmlns="http://www.w3.org/2000/svg" width="24" height="24" viewBox="0 0 24 24"><rect width="24" height="24" fill="#fff" opacity="0"/><path d="M10.349.24a1,1,0,0,0-.108,1.411L14.827,7H1A1,1,0,1,0,1,9H14.826l-4.584,5.349a1,1,0,1,0,1.519,1.3l5.992-6.991a1,1,0,0,0,.242-.545s0-.006,0-.009,0-.008,0-.012a.112.112,0,0,0,0-.012.088.088,0,0,0,0-.011s0-.01,0-.015,0-.006,0-.009,0-.012,0-.018,0,0,0-.006V8h0V7.977c0-.005,0-.01,0-.015s0,0,0-.007,0-.013,0-.02h0a.994.994,0,0,0-.251-.6L11.76.349A1,1,0,0,0,10.349.24Z" transform="translate(21 20) rotate(180)" fill="#fff"/></svg>